<mxfile host="app.diagrams.net" agent="Mozilla/5.0 (Windows NT 10.0; Win64; x64; rv:136.0) Gecko/20100101 Firefox/136.0" version="26.2.4" pages="6">
  <diagram name="Sequence Diagram" id="2YBvvXClWsGukQMizWep">
    <mxGraphModel grid="1" page="1" gridSize="10" guides="1" tooltips="1" connect="1" arrows="1" fold="1" pageScale="1" pageWidth="850" pageHeight="1100" math="0" shadow="0">
      <root>
        <mxCell id="0" />
        <mxCell id="1" parent="0" />
        <mxCell id="fgwkXsDACn9tmK9wiBxJ-10" value="&lt;font style=&quot;font-size: 30px;&quot;&gt;emergencyStop()&lt;/font&gt;" style="html=1;verticalAlign=bottom;endArrow=block;edgeStyle=elbowEdgeStyle;elbow=vertical;curved=0;rounded=0;strokeWidth=6;" edge="1" parent="1">
          <mxGeometry relative="1" as="geometry">
            <mxPoint x="200" y="2200" as="sourcePoint" />
            <Array as="points">
              <mxPoint x="305.45" y="2200" />
            </Array>
            <mxPoint x="1524.5000000000005" y="2200" as="targetPoint" />
          </mxGeometry>
        </mxCell>
        <mxCell id="plvJrkbZUP1r2Isvx8kI-1" value="&lt;font style=&quot;font-size: 30px;&quot;&gt;User Interface&lt;/font&gt;" style="shape=umlLifeline;perimeter=lifelinePerimeter;whiteSpace=wrap;html=1;container=0;dropTarget=0;collapsible=0;recursiveResize=0;outlineConnect=0;portConstraint=eastwest;newEdgeStyle={&quot;edgeStyle&quot;:&quot;elbowEdgeStyle&quot;,&quot;elbow&quot;:&quot;vertical&quot;,&quot;curved&quot;:0,&quot;rounded&quot;:0};size=60;strokeWidth=4;fillColor=#d5e8d4;strokeColor=#82b366;" vertex="1" parent="1">
          <mxGeometry x="50" y="390" width="280" height="2100" as="geometry" />
        </mxCell>
        <mxCell id="plvJrkbZUP1r2Isvx8kI-2" value="" style="html=1;points=[];perimeter=orthogonalPerimeter;outlineConnect=0;targetShapes=umlLifeline;portConstraint=eastwest;newEdgeStyle={&quot;edgeStyle&quot;:&quot;elbowEdgeStyle&quot;,&quot;elbow&quot;:&quot;vertical&quot;,&quot;curved&quot;:0,&quot;rounded&quot;:0};" vertex="1" parent="plvJrkbZUP1r2Isvx8kI-1">
          <mxGeometry x="135" y="87.5" width="10" height="1962.5" as="geometry" />
        </mxCell>
        <mxCell id="plvJrkbZUP1r2Isvx8kI-5" value="&lt;font style=&quot;font-size: 30px;&quot;&gt;State Manager&lt;/font&gt;" style="shape=umlLifeline;perimeter=lifelinePerimeter;whiteSpace=wrap;html=1;container=0;dropTarget=0;collapsible=0;recursiveResize=0;outlineConnect=0;portConstraint=eastwest;newEdgeStyle={&quot;edgeStyle&quot;:&quot;elbowEdgeStyle&quot;,&quot;elbow&quot;:&quot;vertical&quot;,&quot;curved&quot;:0,&quot;rounded&quot;:0};size=70;strokeWidth=4;fillColor=#ffe6cc;strokeColor=#d79b00;" vertex="1" parent="1">
          <mxGeometry x="1350" y="390" width="340" height="2090" as="geometry" />
        </mxCell>
        <mxCell id="plvJrkbZUP1r2Isvx8kI-6" value="" style="html=1;points=[];perimeter=orthogonalPerimeter;outlineConnect=0;targetShapes=umlLifeline;portConstraint=eastwest;newEdgeStyle={&quot;edgeStyle&quot;:&quot;elbowEdgeStyle&quot;,&quot;elbow&quot;:&quot;vertical&quot;,&quot;curved&quot;:0,&quot;rounded&quot;:0};" vertex="1" parent="plvJrkbZUP1r2Isvx8kI-5">
          <mxGeometry x="165" y="100" width="10" height="1950" as="geometry" />
        </mxCell>
        <mxCell id="plvJrkbZUP1r2Isvx8kI-7" value="&lt;font style=&quot;font-size: 30px;&quot;&gt;createMission(info)&lt;/font&gt;" style="html=1;verticalAlign=bottom;endArrow=block;edgeStyle=elbowEdgeStyle;elbow=vertical;curved=0;rounded=0;strokeWidth=6;" edge="1" parent="1">
          <mxGeometry x="0.0009" relative="1" as="geometry">
            <mxPoint x="197.75" y="680" as="sourcePoint" />
            <Array as="points">
              <mxPoint x="282.75" y="680" />
            </Array>
            <mxPoint x="1522.25" y="680" as="targetPoint" />
            <mxPoint as="offset" />
          </mxGeometry>
        </mxCell>
        <mxCell id="plvJrkbZUP1r2Isvx8kI-8" value="&lt;font style=&quot;font-size: 30px;&quot;&gt;New Mission Confirmation&lt;/font&gt;" style="html=1;verticalAlign=bottom;endArrow=open;dashed=1;endSize=8;edgeStyle=elbowEdgeStyle;elbow=vertical;curved=0;rounded=0;strokeWidth=6;" edge="1" parent="1">
          <mxGeometry relative="1" as="geometry">
            <mxPoint x="200" y="740" as="targetPoint" />
            <Array as="points">
              <mxPoint x="300" y="740" />
            </Array>
            <mxPoint x="1519.9999999999995" y="740" as="sourcePoint" />
            <mxPoint as="offset" />
          </mxGeometry>
        </mxCell>
        <mxCell id="W5bcXEJXZBusod0PkNZB-1" value="&lt;font style=&quot;font-size: 30px;&quot;&gt;getAllMissions()&lt;/font&gt;" style="html=1;verticalAlign=bottom;endArrow=block;edgeStyle=elbowEdgeStyle;elbow=vertical;curved=0;rounded=0;strokeWidth=6;" edge="1" parent="1">
          <mxGeometry relative="1" as="geometry">
            <mxPoint x="190" y="540" as="sourcePoint" />
            <Array as="points">
              <mxPoint x="275" y="540" />
            </Array>
            <mxPoint x="1514.5" y="540" as="targetPoint" />
          </mxGeometry>
        </mxCell>
        <mxCell id="W5bcXEJXZBusod0PkNZB-2" value="&lt;font style=&quot;font-size: 30px;&quot;&gt;All Mission, Vehicles, Stages, Zones nested info&lt;/font&gt;" style="html=1;verticalAlign=bottom;endArrow=open;dashed=1;endSize=8;edgeStyle=elbowEdgeStyle;elbow=vertical;curved=0;rounded=0;strokeWidth=6;" edge="1" parent="1" source="plvJrkbZUP1r2Isvx8kI-6" target="plvJrkbZUP1r2Isvx8kI-2">
          <mxGeometry x="-0.0007" relative="1" as="geometry">
            <mxPoint x="200" y="670" as="targetPoint" />
            <Array as="points">
              <mxPoint x="1130" y="590" />
              <mxPoint x="285" y="670" />
            </Array>
            <mxPoint x="620" y="670" as="sourcePoint" />
            <mxPoint as="offset" />
          </mxGeometry>
        </mxCell>
        <mxCell id="fgwkXsDACn9tmK9wiBxJ-5" value="&lt;font style=&quot;font-size: 30px;&quot;&gt;Loop&lt;/font&gt;" style="shape=umlFrame;whiteSpace=wrap;html=1;pointerEvents=0;width=110;height=50;strokeWidth=4;" vertex="1" parent="1">
          <mxGeometry x="50" y="630" width="1640" height="140" as="geometry" />
        </mxCell>
        <mxCell id="fgwkXsDACn9tmK9wiBxJ-6" value="&lt;font style=&quot;font-size: 30px;&quot;&gt;transitionNextStage()&lt;/font&gt;" style="html=1;verticalAlign=bottom;endArrow=block;edgeStyle=elbowEdgeStyle;elbow=vertical;curved=0;rounded=0;strokeWidth=6;" edge="1" parent="1">
          <mxGeometry x="0.0008" relative="1" as="geometry">
            <mxPoint x="195" y="950" as="sourcePoint" />
            <Array as="points">
              <mxPoint x="1180" y="950" />
              <mxPoint x="280" y="910" />
            </Array>
            <mxPoint x="1519.5000000000005" y="950" as="targetPoint" />
            <mxPoint as="offset" />
          </mxGeometry>
        </mxCell>
        <mxCell id="fgwkXsDACn9tmK9wiBxJ-7" value="&lt;font style=&quot;font-size: 30px;&quot;&gt;Next Stage&#39;s Info&lt;/font&gt;" style="html=1;verticalAlign=bottom;endArrow=open;dashed=1;endSize=8;edgeStyle=elbowEdgeStyle;elbow=vertical;curved=0;rounded=0;strokeWidth=6;" edge="1" parent="1">
          <mxGeometry relative="1" as="geometry">
            <mxPoint x="190" y="1020" as="targetPoint" />
            <Array as="points">
              <mxPoint x="290" y="1020" />
            </Array>
            <mxPoint x="1504.5000000000005" y="1020" as="sourcePoint" />
            <mxPoint as="offset" />
          </mxGeometry>
        </mxCell>
        <mxCell id="plvJrkbZUP1r2Isvx8kI-3" value="" style="html=1;verticalAlign=bottom;startArrow=oval;endArrow=block;startSize=8;edgeStyle=elbowEdgeStyle;elbow=vertical;curved=0;rounded=0;strokeWidth=5;" edge="1" parent="1">
          <mxGeometry relative="1" as="geometry">
            <mxPoint x="30" y="500" as="sourcePoint" />
            <mxPoint x="189.9999999999999" y="499.9963157894738" as="targetPoint" />
          </mxGeometry>
        </mxCell>
        <mxCell id="fgwkXsDACn9tmK9wiBxJ-9" value="&lt;font style=&quot;font-size: 30px;&quot;&gt;emergencyStop&lt;/font&gt;" style="shape=umlFrame;whiteSpace=wrap;html=1;pointerEvents=0;width=250;height=60;strokeWidth=4;" vertex="1" parent="1">
          <mxGeometry x="50" y="2110" width="1640" height="210" as="geometry" />
        </mxCell>
        <mxCell id="fgwkXsDACn9tmK9wiBxJ-11" value="&lt;font style=&quot;font-size: 30px;&quot;&gt;confirmation&lt;/font&gt;" style="html=1;verticalAlign=bottom;endArrow=open;dashed=1;endSize=8;edgeStyle=elbowEdgeStyle;elbow=vertical;curved=0;rounded=0;strokeWidth=6;" edge="1" parent="1">
          <mxGeometry x="0.0011" relative="1" as="geometry">
            <mxPoint x="200" y="2260" as="targetPoint" />
            <Array as="points">
              <mxPoint x="310.45" y="2260" />
            </Array>
            <mxPoint x="1518" y="2260" as="sourcePoint" />
            <mxPoint as="offset" />
          </mxGeometry>
        </mxCell>
        <mxCell id="ikDcWkxoZ1uFtMs6xNp4-4" value="&lt;font style=&quot;font-size: 30px;&quot;&gt;Loop&lt;/font&gt;" style="shape=umlFrame;whiteSpace=wrap;html=1;pointerEvents=0;width=110;height=50;strokeWidth=4;" vertex="1" parent="1">
          <mxGeometry x="50" y="810" width="1640" height="250" as="geometry" />
        </mxCell>
        <mxCell id="ikDcWkxoZ1uFtMs6xNp4-5" value="&lt;font style=&quot;font-size: 30px;&quot;&gt;startMission(missionID)&lt;/font&gt;" style="html=1;verticalAlign=bottom;endArrow=block;edgeStyle=elbowEdgeStyle;elbow=vertical;curved=0;rounded=0;strokeWidth=6;" edge="1" parent="1" target="plvJrkbZUP1r2Isvx8kI-5">
          <mxGeometry x="0.0011" relative="1" as="geometry">
            <mxPoint x="195" y="870" as="sourcePoint" />
            <Array as="points">
              <mxPoint x="280" y="870" />
            </Array>
            <mxPoint x="1034.5000000000005" y="870" as="targetPoint" />
            <mxPoint as="offset" />
          </mxGeometry>
        </mxCell>
        <mxCell id="ikDcWkxoZ1uFtMs6xNp4-8" value="&lt;font style=&quot;font-size: 30px;&quot;&gt;Option&lt;/font&gt;" style="shape=umlFrame;whiteSpace=wrap;html=1;pointerEvents=0;width=120;height=50;strokeWidth=4;" vertex="1" parent="1">
          <mxGeometry x="50" y="1100" width="1640" height="580" as="geometry" />
        </mxCell>
        <mxCell id="ikDcWkxoZ1uFtMs6xNp4-9" value="&lt;font style=&quot;font-size: 30px;&quot;&gt;getMissionData(mission_id)&lt;/font&gt;" style="html=1;verticalAlign=bottom;endArrow=block;edgeStyle=elbowEdgeStyle;elbow=vertical;curved=0;rounded=0;strokeWidth=6;" edge="1" parent="1">
          <mxGeometry x="0.0008" relative="1" as="geometry">
            <mxPoint x="205.00000000000023" y="1153.57" as="sourcePoint" />
            <Array as="points">
              <mxPoint x="290" y="1153.57" />
            </Array>
            <mxPoint x="1519.5000000000005" y="1153.57" as="targetPoint" />
            <mxPoint as="offset" />
          </mxGeometry>
        </mxCell>
        <mxCell id="ikDcWkxoZ1uFtMs6xNp4-10" value="&lt;font style=&quot;font-size: 30px;&quot;&gt;Current Mission Info&lt;/font&gt;" style="html=1;verticalAlign=bottom;endArrow=open;dashed=1;endSize=8;edgeStyle=elbowEdgeStyle;elbow=vertical;curved=0;rounded=0;strokeWidth=6;" edge="1" parent="1">
          <mxGeometry x="0.0004" relative="1" as="geometry">
            <mxPoint x="190" y="1210" as="targetPoint" />
            <Array as="points">
              <mxPoint x="305" y="1210" />
            </Array>
            <mxPoint x="1509.5000000000005" y="1210" as="sourcePoint" />
            <mxPoint as="offset" />
          </mxGeometry>
        </mxCell>
        <mxCell id="ikDcWkxoZ1uFtMs6xNp4-11" value="&lt;font style=&quot;font-size: 30px;&quot;&gt;getVehicleData(mission_id, vehicle_name)&lt;/font&gt;" style="html=1;verticalAlign=bottom;endArrow=block;edgeStyle=elbowEdgeStyle;elbow=vertical;curved=0;rounded=0;strokeWidth=6;" edge="1" parent="1">
          <mxGeometry x="0.0004" relative="1" as="geometry">
            <mxPoint x="200.00000000000023" y="1288.57" as="sourcePoint" />
            <Array as="points">
              <mxPoint x="425" y="1288.57" />
              <mxPoint x="285" y="1278.57" />
            </Array>
            <mxPoint x="1514.5000000000005" y="1288.57" as="targetPoint" />
            <mxPoint as="offset" />
          </mxGeometry>
        </mxCell>
        <mxCell id="ikDcWkxoZ1uFtMs6xNp4-12" value="&lt;font style=&quot;font-size: 30px;&quot;&gt;Current Vehicle Data&lt;/font&gt;" style="html=1;verticalAlign=bottom;endArrow=open;dashed=1;endSize=8;edgeStyle=elbowEdgeStyle;elbow=vertical;curved=0;rounded=0;strokeWidth=6;" edge="1" parent="1">
          <mxGeometry relative="1" as="geometry">
            <mxPoint x="200.00000000000023" y="1340" as="targetPoint" />
            <Array as="points">
              <mxPoint x="405" y="1340" />
              <mxPoint x="310" y="1320" />
            </Array>
            <mxPoint x="1514.5000000000005" y="1340" as="sourcePoint" />
            <mxPoint as="offset" />
          </mxGeometry>
        </mxCell>
        <mxCell id="ikDcWkxoZ1uFtMs6xNp4-13" value="&lt;font style=&quot;font-size: 30px;&quot;&gt;getStageData(mission_id, vehicle_name, stage_id)&lt;/font&gt;" style="html=1;verticalAlign=bottom;endArrow=block;edgeStyle=elbowEdgeStyle;elbow=vertical;curved=0;rounded=0;strokeWidth=6;" edge="1" parent="1">
          <mxGeometry x="0.0008" relative="1" as="geometry">
            <mxPoint x="200" y="1420" as="sourcePoint" />
            <Array as="points">
              <mxPoint x="515" y="1420" />
              <mxPoint x="285" y="1410" />
            </Array>
            <mxPoint x="1509.5000000000005" y="1420" as="targetPoint" />
            <mxPoint as="offset" />
          </mxGeometry>
        </mxCell>
        <mxCell id="ikDcWkxoZ1uFtMs6xNp4-14" value="&lt;font style=&quot;font-size: 30px;&quot;&gt;Current Stage info&lt;/font&gt;" style="html=1;verticalAlign=bottom;endArrow=open;dashed=1;endSize=8;edgeStyle=elbowEdgeStyle;elbow=vertical;curved=0;rounded=0;strokeWidth=6;" edge="1" parent="1" source="plvJrkbZUP1r2Isvx8kI-5">
          <mxGeometry relative="1" as="geometry">
            <mxPoint x="210.00000000000023" y="1480" as="targetPoint" />
            <Array as="points">
              <mxPoint x="535" y="1480" />
              <mxPoint x="505" y="1470" />
              <mxPoint x="320" y="1440" />
            </Array>
            <mxPoint x="1460" y="1480" as="sourcePoint" />
            <mxPoint as="offset" />
          </mxGeometry>
        </mxCell>
        <mxCell id="ikDcWkxoZ1uFtMs6xNp4-15" value="&lt;font style=&quot;font-size: 30px;&quot;&gt;getZoneData(mission_id)&lt;/font&gt;" style="html=1;verticalAlign=bottom;endArrow=block;edgeStyle=elbowEdgeStyle;elbow=vertical;curved=0;rounded=0;strokeWidth=6;" edge="1" parent="1">
          <mxGeometry x="0.0008" relative="1" as="geometry">
            <mxPoint x="200" y="1570" as="sourcePoint" />
            <Array as="points">
              <mxPoint x="505" y="1570" />
              <mxPoint x="285" y="1520" />
            </Array>
            <mxPoint x="1509.5000000000005" y="1570" as="targetPoint" />
            <mxPoint as="offset" />
          </mxGeometry>
        </mxCell>
        <mxCell id="ikDcWkxoZ1uFtMs6xNp4-16" value="&lt;font style=&quot;font-size: 30px;&quot;&gt;Current active zones&lt;/font&gt;" style="html=1;verticalAlign=bottom;endArrow=open;dashed=1;endSize=8;edgeStyle=elbowEdgeStyle;elbow=vertical;curved=0;rounded=0;strokeWidth=6;" edge="1" parent="1">
          <mxGeometry x="0.0008" relative="1" as="geometry">
            <mxPoint x="200.00000000000023" y="1630" as="targetPoint" />
            <Array as="points">
              <mxPoint x="555" y="1630" />
              <mxPoint x="505" y="1620" />
              <mxPoint x="310" y="1570" />
            </Array>
            <mxPoint x="1514.5000000000005" y="1630" as="sourcePoint" />
            <mxPoint as="offset" />
          </mxGeometry>
        </mxCell>
        <mxCell id="ikDcWkxoZ1uFtMs6xNp4-24" value="&lt;font style=&quot;font-size: 24px;&quot;&gt;[viewMissionInProgress]&lt;/font&gt;" style="text;html=1;align=center;verticalAlign=middle;whiteSpace=wrap;rounded=0;" vertex="1" parent="1">
          <mxGeometry x="70" y="1160" width="270" height="30" as="geometry" />
        </mxCell>
        <mxCell id="nHrENIIL0dzJdCrqpL_k-1" value="&lt;font style=&quot;font-size: 30px;&quot;&gt;lostVehicleConnection()&lt;/font&gt;" style="html=1;verticalAlign=bottom;endArrow=open;dashed=1;endSize=8;edgeStyle=elbowEdgeStyle;elbow=vertical;curved=0;rounded=0;strokeWidth=6;" edge="1" parent="1">
          <mxGeometry relative="1" as="geometry">
            <mxPoint x="200" y="1810" as="targetPoint" />
            <Array as="points">
              <mxPoint x="1140" y="1810" />
              <mxPoint x="295" y="1890" />
            </Array>
            <mxPoint x="1515" y="1810" as="sourcePoint" />
            <mxPoint as="offset" />
          </mxGeometry>
        </mxCell>
        <mxCell id="nHrENIIL0dzJdCrqpL_k-2" value="&lt;font style=&quot;font-size: 30px;&quot;&gt;failedConnectionInit()&lt;/font&gt;" style="html=1;verticalAlign=bottom;endArrow=open;dashed=1;endSize=8;edgeStyle=elbowEdgeStyle;elbow=vertical;curved=0;rounded=0;strokeWidth=6;" edge="1" parent="1">
          <mxGeometry relative="1" as="geometry">
            <mxPoint x="200" y="1870" as="targetPoint" />
            <Array as="points">
              <mxPoint x="1140" y="1870" />
              <mxPoint x="295" y="1950" />
            </Array>
            <mxPoint x="1515" y="1870" as="sourcePoint" />
            <mxPoint as="offset" />
          </mxGeometry>
        </mxCell>
        <mxCell id="nHrENIIL0dzJdCrqpL_k-3" value="&lt;font style=&quot;font-size: 30px;&quot;&gt;keepOutProximityWarning()&lt;/font&gt;" style="html=1;verticalAlign=bottom;endArrow=open;dashed=1;endSize=8;edgeStyle=elbowEdgeStyle;elbow=vertical;curved=0;rounded=0;strokeWidth=6;" edge="1" parent="1" source="plvJrkbZUP1r2Isvx8kI-6">
          <mxGeometry relative="1" as="geometry">
            <mxPoint x="207.5" y="1940" as="targetPoint" />
            <Array as="points">
              <mxPoint x="1147.5" y="1940" />
              <mxPoint x="302.5" y="2020" />
            </Array>
            <mxPoint x="1510" y="1940" as="sourcePoint" />
            <mxPoint as="offset" />
          </mxGeometry>
        </mxCell>
        <mxCell id="nHrENIIL0dzJdCrqpL_k-4" value="&lt;font style=&quot;font-size: 30px;&quot;&gt;patientTransportStatus()&lt;/font&gt;" style="html=1;verticalAlign=bottom;endArrow=open;dashed=1;endSize=8;edgeStyle=elbowEdgeStyle;elbow=vertical;curved=0;rounded=0;strokeWidth=6;" edge="1" parent="1" source="plvJrkbZUP1r2Isvx8kI-6">
          <mxGeometry relative="1" as="geometry">
            <mxPoint x="210" y="2000" as="targetPoint" />
            <Array as="points">
              <mxPoint x="1130" y="2000" />
              <mxPoint x="285" y="2080" />
            </Array>
            <mxPoint x="1510" y="2000" as="sourcePoint" />
            <mxPoint as="offset" />
          </mxGeometry>
        </mxCell>
        <mxCell id="_duZzU_yAUYHwxwUBt5N-1" value="&lt;font style=&quot;font-size: 30px;&quot;&gt;Option&lt;/font&gt;" style="shape=umlFrame;whiteSpace=wrap;html=1;pointerEvents=0;width=130;height=50;strokeWidth=4;" vertex="1" parent="1">
          <mxGeometry x="50" y="1700" width="1640" height="360" as="geometry" />
        </mxCell>
        <mxCell id="_duZzU_yAUYHwxwUBt5N-8" value="&lt;font style=&quot;font-size: 24px;&quot;&gt;[triggerAlert]&lt;/font&gt;" style="text;html=1;align=center;verticalAlign=middle;whiteSpace=wrap;rounded=0;" vertex="1" parent="1">
          <mxGeometry x="70" y="1760" width="145" height="30" as="geometry" />
        </mxCell>
      </root>
    </mxGraphModel>
  </diagram>
  <diagram id="W08eUrcz_SIGlx-ZYc9M" name="Mission Options and Emergency">
    <mxGraphModel grid="1" page="1" gridSize="10" guides="1" tooltips="1" connect="1" arrows="1" fold="1" pageScale="1" pageWidth="850" pageHeight="1100" math="0" shadow="0">
      <root>
        <mxCell id="0" />
        <mxCell id="1" parent="0" />
        <mxCell id="IGkLJcSMtTGgK7YceXOk-1" value="&lt;font style=&quot;font-size: 36px;&quot;&gt;getMissionData(mission_id)&lt;/font&gt;" style="html=1;verticalAlign=bottom;endArrow=block;edgeStyle=elbowEdgeStyle;elbow=vertical;curved=0;rounded=0;strokeWidth=6;labelBackgroundColor=none;" edge="1" parent="1">
          <mxGeometry relative="1" as="geometry">
            <mxPoint x="120" y="1220" as="sourcePoint" />
            <Array as="points">
              <mxPoint x="205" y="1220" />
            </Array>
            <mxPoint x="1600" y="1220" as="targetPoint" />
            <mxPoint as="offset" />
          </mxGeometry>
        </mxCell>
        <mxCell id="IGkLJcSMtTGgK7YceXOk-2" value="&lt;font style=&quot;font-size: 36px;&quot;&gt;Current Mission Info&lt;/font&gt;" style="html=1;verticalAlign=bottom;endArrow=open;dashed=1;endSize=8;edgeStyle=elbowEdgeStyle;elbow=vertical;curved=0;rounded=0;strokeWidth=6;" edge="1" parent="1">
          <mxGeometry relative="1" as="geometry">
            <mxPoint x="120" y="1308" as="targetPoint" />
            <Array as="points">
              <mxPoint x="1050" y="1308" />
              <mxPoint x="205" y="1388" />
            </Array>
            <mxPoint x="1600" y="1308" as="sourcePoint" />
            <mxPoint as="offset" />
          </mxGeometry>
        </mxCell>
        <mxCell id="RzMR2YevzGJcG3IsNh5n-1" value="&lt;font style=&quot;font-size: 36px;&quot;&gt;getVehicleData(mission_id, vehicle_name)&lt;/font&gt;" style="html=1;verticalAlign=bottom;endArrow=block;edgeStyle=elbowEdgeStyle;elbow=vertical;curved=0;rounded=0;strokeWidth=6;" edge="1" parent="1">
          <mxGeometry relative="1" as="geometry">
            <mxPoint x="120" y="1400" as="sourcePoint" />
            <Array as="points">
              <mxPoint x="215" y="1400" />
            </Array>
            <mxPoint x="1600" y="1400" as="targetPoint" />
            <mxPoint as="offset" />
          </mxGeometry>
        </mxCell>
        <mxCell id="RzMR2YevzGJcG3IsNh5n-2" value="&lt;font style=&quot;font-size: 36px;&quot;&gt;Current Vehicle Data&lt;/font&gt;" style="html=1;verticalAlign=bottom;endArrow=open;dashed=1;endSize=8;edgeStyle=elbowEdgeStyle;elbow=vertical;curved=0;rounded=0;strokeWidth=6;" edge="1" parent="1">
          <mxGeometry relative="1" as="geometry">
            <mxPoint x="120" y="1488" as="targetPoint" />
            <Array as="points">
              <mxPoint x="1060" y="1488" />
              <mxPoint x="215" y="1568" />
            </Array>
            <mxPoint x="1600" y="1488" as="sourcePoint" />
            <mxPoint as="offset" />
          </mxGeometry>
        </mxCell>
        <mxCell id="3osFWIO_w3sYUxcPfpQQ-1" value="&lt;font style=&quot;font-size: 36px;&quot;&gt;getStageData(mission_id, vehicle_name, stage_id)&lt;/font&gt;" style="html=1;verticalAlign=bottom;endArrow=block;edgeStyle=elbowEdgeStyle;elbow=vertical;curved=0;rounded=0;strokeWidth=6;" edge="1" parent="1">
          <mxGeometry relative="1" as="geometry">
            <mxPoint x="120" y="1590" as="sourcePoint" />
            <Array as="points">
              <mxPoint x="205" y="1590" />
            </Array>
            <mxPoint x="1600" y="1590" as="targetPoint" />
            <mxPoint as="offset" />
          </mxGeometry>
        </mxCell>
        <mxCell id="3osFWIO_w3sYUxcPfpQQ-2" value="&lt;font style=&quot;font-size: 36px;&quot;&gt;Current Stage info &lt;br&gt;&lt;/font&gt;" style="html=1;verticalAlign=bottom;endArrow=open;dashed=1;endSize=8;edgeStyle=elbowEdgeStyle;elbow=vertical;curved=0;rounded=0;strokeWidth=6;" edge="1" parent="1">
          <mxGeometry relative="1" as="geometry">
            <mxPoint x="120" y="1678" as="targetPoint" />
            <Array as="points">
              <mxPoint x="1050" y="1678" />
              <mxPoint x="205" y="1758" />
            </Array>
            <mxPoint x="1600" y="1680" as="sourcePoint" />
            <mxPoint as="offset" />
          </mxGeometry>
        </mxCell>
        <mxCell id="JSghp_eX91vmNdO_DOC3-1" value="&lt;font style=&quot;font-size: 36px;&quot;&gt;getZoneData(mission_id)&lt;/font&gt;" style="html=1;verticalAlign=bottom;endArrow=block;edgeStyle=elbowEdgeStyle;elbow=vertical;curved=0;rounded=0;strokeWidth=6;" edge="1" parent="1">
          <mxGeometry relative="1" as="geometry">
            <mxPoint x="120" y="1780" as="sourcePoint" />
            <Array as="points">
              <mxPoint x="205" y="1780" />
            </Array>
            <mxPoint x="1600" y="1780" as="targetPoint" />
            <mxPoint as="offset" />
          </mxGeometry>
        </mxCell>
        <mxCell id="JSghp_eX91vmNdO_DOC3-2" value="&lt;font style=&quot;font-size: 36px;&quot;&gt;Current active zones&lt;/font&gt;" style="html=1;verticalAlign=bottom;endArrow=open;dashed=1;endSize=8;edgeStyle=elbowEdgeStyle;elbow=vertical;curved=0;rounded=0;strokeWidth=6;" edge="1" parent="1">
          <mxGeometry relative="1" as="geometry">
            <mxPoint x="120" y="1868" as="targetPoint" />
            <Array as="points">
              <mxPoint x="1050" y="1868" />
              <mxPoint x="205" y="1948" />
            </Array>
            <mxPoint x="1600" y="1870" as="sourcePoint" />
            <mxPoint as="offset" />
          </mxGeometry>
        </mxCell>
      </root>
    </mxGraphModel>
  </diagram>
  <diagram name="Copy of Mission Options and Emergency" id="nnZUAsw_QRTRHsatgEBn">
    <mxGraphModel grid="1" page="1" gridSize="10" guides="1" tooltips="1" connect="1" arrows="1" fold="1" pageScale="1" pageWidth="850" pageHeight="1100" math="0" shadow="0">
      <root>
        <mxCell id="yM4AwILhDangwI2Jt_yW-0" />
        <mxCell id="yM4AwILhDangwI2Jt_yW-1" parent="yM4AwILhDangwI2Jt_yW-0" />
        <mxCell id="yM4AwILhDangwI2Jt_yW-3" value="&lt;font style=&quot;font-size: 36px;&quot;&gt;lostVehicleConnection()&lt;/font&gt;" style="html=1;verticalAlign=bottom;endArrow=open;dashed=1;endSize=8;edgeStyle=elbowEdgeStyle;elbow=vertical;curved=0;rounded=0;strokeWidth=6;" edge="1" parent="yM4AwILhDangwI2Jt_yW-1">
          <mxGeometry relative="1" as="geometry">
            <mxPoint x="80" y="1530" as="targetPoint" />
            <Array as="points">
              <mxPoint x="1020" y="1530" />
              <mxPoint x="175" y="1610" />
            </Array>
            <mxPoint x="1560" y="1530" as="sourcePoint" />
            <mxPoint as="offset" />
          </mxGeometry>
        </mxCell>
        <mxCell id="CepxyEpZhY5KeFiRfI3K-1" value="&lt;font style=&quot;font-size: 36px;&quot;&gt;failedConnectionInit()&lt;/font&gt;" style="html=1;verticalAlign=bottom;endArrow=open;dashed=1;endSize=8;edgeStyle=elbowEdgeStyle;elbow=vertical;curved=0;rounded=0;strokeWidth=6;" edge="1" parent="yM4AwILhDangwI2Jt_yW-1">
          <mxGeometry relative="1" as="geometry">
            <mxPoint x="80" y="1622" as="targetPoint" />
            <Array as="points">
              <mxPoint x="1020" y="1622" />
              <mxPoint x="175" y="1702" />
            </Array>
            <mxPoint x="1560" y="1622" as="sourcePoint" />
            <mxPoint as="offset" />
          </mxGeometry>
        </mxCell>
        <mxCell id="CepxyEpZhY5KeFiRfI3K-2" value="&lt;font style=&quot;font-size: 36px;&quot;&gt;keepOutProximityWarning()&lt;/font&gt;" style="html=1;verticalAlign=bottom;endArrow=open;dashed=1;endSize=8;edgeStyle=elbowEdgeStyle;elbow=vertical;curved=0;rounded=0;strokeWidth=6;" edge="1" parent="yM4AwILhDangwI2Jt_yW-1">
          <mxGeometry relative="1" as="geometry">
            <mxPoint x="80" y="1712" as="targetPoint" />
            <Array as="points">
              <mxPoint x="1020" y="1712" />
              <mxPoint x="175" y="1792" />
            </Array>
            <mxPoint x="1560" y="1712" as="sourcePoint" />
            <mxPoint as="offset" />
          </mxGeometry>
        </mxCell>
        <mxCell id="CepxyEpZhY5KeFiRfI3K-3" value="&lt;font style=&quot;font-size: 36px;&quot;&gt;patientTransportStatus()&lt;/font&gt;" style="html=1;verticalAlign=bottom;endArrow=open;dashed=1;endSize=8;edgeStyle=elbowEdgeStyle;elbow=vertical;curved=0;rounded=0;strokeWidth=6;" edge="1" parent="yM4AwILhDangwI2Jt_yW-1">
          <mxGeometry relative="1" as="geometry">
            <mxPoint x="80" y="1802" as="targetPoint" />
            <Array as="points">
              <mxPoint x="1020" y="1802" />
              <mxPoint x="175" y="1882" />
            </Array>
            <mxPoint x="1560" y="1802" as="sourcePoint" />
            <mxPoint as="offset" />
          </mxGeometry>
        </mxCell>
        <mxCell id="sYFa04-Upy7A1XCX_-Mm-0" value="&lt;font style=&quot;font-size: 36px;&quot;&gt;emergencyStop()&lt;/font&gt;" style="html=1;verticalAlign=bottom;endArrow=block;edgeStyle=elbowEdgeStyle;elbow=vertical;curved=0;rounded=0;strokeWidth=6;" edge="1" parent="yM4AwILhDangwI2Jt_yW-1">
          <mxGeometry relative="1" as="geometry">
            <mxPoint x="80" y="1980" as="sourcePoint" />
            <Array as="points">
              <mxPoint x="165" y="1980" />
            </Array>
            <mxPoint x="1560" y="1980" as="targetPoint" />
            <mxPoint as="offset" />
          </mxGeometry>
        </mxCell>
        <mxCell id="sYFa04-Upy7A1XCX_-Mm-1" value="&lt;font style=&quot;font-size: 36px;&quot;&gt;confirmation&lt;/font&gt;" style="html=1;verticalAlign=bottom;endArrow=open;dashed=1;endSize=8;edgeStyle=elbowEdgeStyle;elbow=vertical;curved=0;rounded=0;strokeWidth=6;" edge="1" parent="yM4AwILhDangwI2Jt_yW-1">
          <mxGeometry relative="1" as="geometry">
            <mxPoint x="80" y="2068" as="targetPoint" />
            <Array as="points">
              <mxPoint x="1010" y="2068" />
              <mxPoint x="165" y="2148" />
            </Array>
            <mxPoint x="1560" y="2070" as="sourcePoint" />
            <mxPoint as="offset" />
          </mxGeometry>
        </mxCell>
      </root>
    </mxGraphModel>
  </diagram>
  <diagram id="50sBWMb50IfmUMQPGL_h" name="Loop">
    <mxGraphModel grid="1" page="1" gridSize="10" guides="1" tooltips="1" connect="1" arrows="1" fold="1" pageScale="1" pageWidth="850" pageHeight="1100" background="none" math="0" shadow="0">
      <root>
        <mxCell id="0" />
        <mxCell id="1" parent="0" />
        <mxCell id="MUKtmBRtY7qDl-Sl4UaC-7" value="" style="whiteSpace=wrap;html=1;fillColor=#E6E6E6;strokeColor=none;" vertex="1" parent="1">
          <mxGeometry x="10" y="280" width="1680" height="210" as="geometry" />
        </mxCell>
        <mxCell id="DMZTsE-Hv-5uLNApbrBr-1" value="&lt;font style=&quot;font-size: 28px;&quot;&gt;Option&lt;/font&gt;" style="shape=umlFrame;whiteSpace=wrap;html=1;pointerEvents=0;width=150;height=70;strokeWidth=4;fillColor=light-dark(#E6E6E6,var(--ge-dark-color, #121212));strokeColor=#B3B3B3;fillStyle=auto;labelBackgroundColor=none;" vertex="1" parent="1">
          <mxGeometry x="10" y="280" width="1680" height="210" as="geometry" />
        </mxCell>
      </root>
    </mxGraphModel>
  </diagram>
  <diagram id="1owMTxqZ3KL8iY4YpjbE" name="Bars">
    <mxGraphModel grid="1" page="1" gridSize="10" guides="1" tooltips="1" connect="1" arrows="1" fold="1" pageScale="1" pageWidth="850" pageHeight="1100" math="0" shadow="0">
      <root>
        <mxCell id="0" />
        <mxCell id="1" parent="0" />
        <mxCell id="mmNhqvvMjHytZYDpSLSU-1" value="&lt;font style=&quot;font-size: 30px;&quot; data-font-src=&quot;https://fonts.googleapis.com/css?family=Arial&quot;&gt;State Manager&lt;/font&gt;" style="shape=umlLifeline;perimeter=lifelinePerimeter;whiteSpace=wrap;html=1;container=0;dropTarget=0;collapsible=0;recursiveResize=0;outlineConnect=0;portConstraint=eastwest;newEdgeStyle={&quot;edgeStyle&quot;:&quot;elbowEdgeStyle&quot;,&quot;elbow&quot;:&quot;vertical&quot;,&quot;curved&quot;:0,&quot;rounded&quot;:0};size=60;strokeWidth=4;fontFamily=Arial;fontSource=https%3A%2F%2Ffonts.googleapis.com%2Fcss%3Ffamily%3DArial;fillColor=#ffe6cc;strokeColor=#d79b00;" vertex="1" parent="1">
          <mxGeometry x="140" y="-1270" width="280" height="780" as="geometry" />
        </mxCell>
        <mxCell id="mmNhqvvMjHytZYDpSLSU-2" value="" style="html=1;points=[];perimeter=orthogonalPerimeter;outlineConnect=0;targetShapes=umlLifeline;portConstraint=eastwest;newEdgeStyle={&quot;edgeStyle&quot;:&quot;elbowEdgeStyle&quot;,&quot;elbow&quot;:&quot;vertical&quot;,&quot;curved&quot;:0,&quot;rounded&quot;:0};" vertex="1" parent="mmNhqvvMjHytZYDpSLSU-1">
          <mxGeometry x="135" y="87.5" width="10" height="652.5" as="geometry" />
        </mxCell>
      </root>
    </mxGraphModel>
  </diagram>
  <diagram id="B4JWiJ1JphURqtar-Z9t" name="Random">
    <mxGraphModel grid="1" page="1" gridSize="10" guides="1" tooltips="1" connect="1" arrows="1" fold="1" pageScale="1" pageWidth="850" pageHeight="1100" math="0" shadow="0">
      <root>
        <mxCell id="0" />
        <mxCell id="1" parent="0" />
        <mxCell id="q0gP0u4iqT-gM6T6JYBD-1" value="&lt;font style=&quot;font-size: 24px;&quot;&gt;[emergencyStop]&lt;/font&gt;" style="text;html=1;align=center;verticalAlign=middle;whiteSpace=wrap;rounded=0;" vertex="1" parent="1">
          <mxGeometry x="60" y="200" width="200" height="30" as="geometry" />
        </mxCell>
      </root>
    </mxGraphModel>
  </diagram>
</mxfile>
